<?xml version="1.0" encoding="utf-8"?>
<!-- Generator: Adobe Illustrator 19.0.0, SVG Export Plug-In . SVG Version: 6.00 Build 0)  -->
<svg class="logo" version="1.1" id="Capa_1" xmlns="http://www.w3.org/2000/svg" xmlns:xlink="http://www.w3.org/1999/xlink" x="0px" y="0px"
	 viewBox="203 -202.1 475.1 475.1" style="enable-background:new 203 -202.1 475.1 475.1;" xml:space="preserve">
<style type="text/css">
	.st0{fill:#FE00FE;}
</style>
<g>
	<g>
		<path class="st0" d="M639.2-55.3c5.1-15.4,7.7-31.4,7.7-48c0-22.1-4.9-42.8-14.6-62.2c-20.4,0-38.3,3.7-54,11.1
			c-15.6,7.4-33.4,18.9-53.4,34.5c-25.1-6.1-51.8-9.1-79.9-9.1c-30.8,0-60.2,3.3-88.2,10c-20.4-16-38.4-27.7-54-35.3
			c-15.6-7.5-33.7-11.3-54.2-11.3c-9.7,19.4-14.6,40.2-14.6,62.2c0,16.8,2.6,32.9,7.7,48.5C215.9-24.5,203,13.2,203,58.3
			c0,39.6,5.9,71.1,17.7,94.5c6.3,12.4,14.5,23.3,24.6,32.8c10.1,9.5,21.6,17.2,34.5,23.1c12.9,5.9,26,10.8,39.1,14.7
			c13.1,3.9,27.6,6.8,43.5,8.6c15.9,1.8,29.9,3,42.1,3.6c12.2,0.6,25.7,0.9,40.5,0.9c17.5,0,33.4-0.4,47.7-1.3
			c14.3-0.9,30.6-3,49-6.3c18.4-3.3,34.5-7.9,48.5-13.6c14-5.7,27.4-13.9,40.3-24.6c12.8-10.7,22.9-23.3,30.1-38
			c11.6-23.6,17.4-55.1,17.4-94.5C678.1,13,665.1-24.9,639.2-55.3z M605,152.4c-6.1,12.5-13.8,22.3-23.1,29.4
			c-9.3,7.1-20.9,12.8-34.8,17.1c-13.9,4.3-27.2,7.1-40,8.4c-12.8,1.3-26.9,2-42.5,2h-48c-15.6,0-29.8-0.7-42.5-2
			c-12.8-1.3-26.1-4.1-40-8.4c-13.9-4.3-25.5-10-34.8-17.1c-9.3-7.1-17-16.9-23.1-29.4c-6.1-12.5-9.1-27.1-9.1-43.8
			c0-22.8,6.6-42.3,19.7-58.2c13.1-16,30.9-24,53.4-24c8.2,0,26.7,2,55.7,6c13.5,2.1,28.5,3.1,44.8,3.1c16.4,0,31.3-1,44.8-3.1
			c29.3-4,47.9-6,55.7-6c22.5,0,40.3,8,53.4,24c13.1,16,19.7,35.4,19.7,58.2C614.1,125.3,611.1,139.9,605,152.4z"/>
		<path class="st0" d="M369.9,63.4c-5.8-6.5-12.7-9.7-20.7-9.7c-8,0-14.9,3.2-20.7,9.7c-5.8,6.5-9.9,13.7-12.3,21.7
			c-2.4,8-3.6,15.8-3.6,23.4c0,7.6,1.2,15.4,3.6,23.4c2.4,8,6.5,15.2,12.3,21.7c5.8,6.5,12.7,9.7,20.7,9.7c8,0,14.9-3.2,20.7-9.7
			c5.8-6.5,9.9-13.7,12.3-21.7c2.4-8,3.6-15.8,3.6-23.4c0-7.6-1.2-15.4-3.6-23.4C379.8,77.1,375.7,69.9,369.9,63.4z"/>
		<path class="st0" d="M552.6,63.4c-5.8-6.5-12.7-9.7-20.7-9.7c-8,0-14.9,3.2-20.7,9.7c-5.8,6.5-9.9,13.7-12.3,21.7
			c-2.4,8-3.6,15.8-3.6,23.4c0,7.6,1.2,15.4,3.6,23.4c2.4,8,6.5,15.2,12.3,21.7c5.8,6.5,12.7,9.7,20.7,9.7c8,0,14.9-3.2,20.7-9.7
			c5.8-6.5,9.9-13.7,12.3-21.7c2.4-8,3.6-15.8,3.6-23.4c0-7.6-1.2-15.4-3.6-23.4C562.5,77.1,558.4,69.9,552.6,63.4z"/>
	</g>
</g>
</svg>
